<svg width="28" height="23" viewBox="0 0 28 23" fill="none" xmlns="http://www.w3.org/2000/svg">
<path d="M19.1214 19.8643C18.9684 19.8643 18.8217 19.925 18.7135 20.0332C18.6052 20.1415 18.5444 20.2882 18.5444 20.4413V22.0802C18.5412 22.158 18.5537 22.2356 18.5812 22.3083C18.6087 22.3811 18.6507 22.4476 18.7045 22.5037C18.7584 22.5598 18.823 22.6045 18.8946 22.635C18.9662 22.6655 19.0432 22.6813 19.1209 22.6813C19.1987 22.6813 19.2757 22.6655 19.3473 22.635C19.4189 22.6045 19.4835 22.5598 19.5373 22.5037C19.5912 22.4476 19.6332 22.3811 19.6607 22.3083C19.6882 22.2356 19.7007 22.158 19.6974 22.0802V20.4413C19.6974 20.2884 19.6368 20.1418 19.5288 20.0336C19.4208 19.9254 19.2743 19.8645 19.1214 19.8643Z" fill="#4A5A67"/>
<path d="M19.1214 8.55625C19.2744 8.55625 19.4212 8.49545 19.5294 8.38725C19.6376 8.27904 19.6984 8.13228 19.6984 7.97925V6.33625C19.7017 6.25852 19.6891 6.18094 19.6616 6.10817C19.6341 6.0354 19.5922 5.96895 19.5383 5.91281C19.4845 5.85667 19.4198 5.812 19.3483 5.78148C19.2767 5.75096 19.1997 5.73523 19.1219 5.73523C19.0441 5.73523 18.9671 5.75096 18.8956 5.78148C18.824 5.812 18.7594 5.85667 18.7055 5.91281C18.6517 5.96895 18.6097 6.0354 18.5822 6.10817C18.5547 6.18094 18.5422 6.25852 18.5454 6.33625V7.97625C18.545 8.05219 18.5596 8.12746 18.5884 8.19774C18.6171 8.26803 18.6595 8.33195 18.713 8.38583C18.7665 8.43972 18.8301 8.48251 18.9002 8.51175C18.9703 8.54099 19.0455 8.55611 19.1214 8.55625Z" fill="#4A5A67"/>
<path d="M14.3074 18.2072L13.1474 19.3662C13.0454 19.4755 12.9897 19.6202 12.9923 19.7697C12.9948 19.9192 13.0553 20.0619 13.1609 20.1677C13.2666 20.2735 13.4092 20.3341 13.5587 20.3368C13.7082 20.3395 13.8529 20.2841 13.9624 20.1822L15.1224 19.0232C15.2244 18.9139 15.28 18.7692 15.2775 18.6197C15.275 18.4702 15.2145 18.3275 15.1088 18.2217C15.0032 18.1159 14.8605 18.0553 14.711 18.0526C14.5615 18.0499 14.4168 18.1053 14.3074 18.2072Z" fill="#4A5A67"/>
<path d="M23.5281 10.3753C23.6039 10.3754 23.679 10.3605 23.749 10.3315C23.819 10.3025 23.8826 10.2599 23.9361 10.2063L25.0961 9.04726C25.1528 8.99447 25.1983 8.93079 25.2299 8.86004C25.2614 8.78929 25.2784 8.7129 25.2798 8.63544C25.2812 8.55798 25.267 8.48102 25.2381 8.40917C25.2091 8.33732 25.1659 8.27204 25.1112 8.21722C25.0564 8.16241 24.9912 8.11918 24.9194 8.09011C24.8476 8.06105 24.7706 8.04675 24.6932 8.04806C24.6157 8.04937 24.5393 8.06626 24.4685 8.09774C24.3977 8.12921 24.334 8.17462 24.2811 8.23126L23.1211 9.39026C23.0408 9.47101 22.9861 9.57373 22.9641 9.68549C22.942 9.79725 22.9535 9.91303 22.9971 10.0183C23.0408 10.1235 23.1146 10.2134 23.2092 10.2768C23.3039 10.3402 23.4152 10.3741 23.5291 10.3743L23.5281 10.3753Z" fill="#4A5A67"/>
<path d="M13.4662 14.2082C13.4662 14.0552 13.4055 13.9084 13.2973 13.8002C13.189 13.692 13.0423 13.6312 12.8893 13.6312H11.2503C11.1015 13.6374 10.9609 13.7009 10.8579 13.8083C10.7548 13.9157 10.6973 14.0589 10.6973 14.2077C10.6973 14.3566 10.7548 14.4997 10.8579 14.6071C10.9609 14.7146 11.1015 14.778 11.2503 14.7842H12.8893C13.0421 14.7842 13.1887 14.7236 13.2969 14.6156C13.4051 14.5076 13.466 14.3611 13.4662 14.2082Z" fill="#4A5A67"/>
<path d="M26.994 13.6312H25.354C25.2762 13.628 25.1987 13.6405 25.1259 13.668C25.0531 13.6955 24.9867 13.7375 24.9305 13.7913C24.8744 13.8452 24.8297 13.9098 24.7992 13.9814C24.7687 14.053 24.7529 14.1299 24.7529 14.2077C24.7529 14.2855 24.7687 14.3625 24.7992 14.4341C24.8297 14.5056 24.8744 14.5703 24.9305 14.6241C24.9867 14.678 25.0531 14.7199 25.1259 14.7475C25.1987 14.775 25.2762 14.7875 25.354 14.7842H26.994C27.0717 14.7875 27.1493 14.775 27.222 14.7475C27.2948 14.7199 27.3612 14.678 27.4174 14.6241C27.4735 14.5703 27.5182 14.5056 27.5487 14.4341C27.5792 14.3625 27.595 14.2855 27.595 14.2077C27.595 14.1299 27.5792 14.053 27.5487 13.9814C27.5182 13.9098 27.4735 13.8452 27.4174 13.7913C27.3612 13.7375 27.2948 13.6955 27.222 13.668C27.1493 13.6405 27.0717 13.628 26.994 13.6312Z" fill="#4A5A67"/>
<path d="M14.3073 10.2083C14.3602 10.2649 14.4239 10.3103 14.4947 10.3418C14.5655 10.3733 14.6419 10.3902 14.7193 10.3915C14.7968 10.3928 14.8737 10.3785 14.9456 10.3494C15.0174 10.3204 15.0826 10.2771 15.1373 10.2223C15.1921 10.1675 15.2352 10.1022 15.2642 10.0304C15.2932 9.95852 15.3074 9.88157 15.306 9.8041C15.3046 9.72664 15.2876 9.65026 15.256 9.5795C15.2245 9.50875 15.179 9.44508 15.1223 9.39228L13.9643 8.23328C13.8545 8.13388 13.7107 8.08049 13.5627 8.08416C13.4147 8.08783 13.2737 8.14827 13.169 8.25298C13.0643 8.3577 13.0038 8.49866 13.0002 8.64669C12.9965 8.79473 13.0499 8.93851 13.1493 9.04828L14.3073 10.2083Z" fill="#4A5A67"/>
<path d="M23.9368 18.2072C23.884 18.1505 23.8203 18.1051 23.7496 18.0735C23.6788 18.0419 23.6024 18.0249 23.525 18.0235C23.4475 18.0221 23.3705 18.0363 23.2987 18.0653C23.2268 18.0943 23.1616 18.1374 23.1068 18.1922C23.0519 18.2469 23.0087 18.3122 22.9797 18.384C22.9506 18.4558 22.9363 18.5327 22.9376 18.6102C22.9389 18.6877 22.9558 18.7641 22.9873 18.8349C23.0187 18.9057 23.0642 18.9694 23.1208 19.0222L24.2798 20.1812C24.3326 20.2379 24.3963 20.2834 24.467 20.315C24.5378 20.3466 24.6141 20.3635 24.6916 20.3649C24.7691 20.3664 24.846 20.3521 24.9179 20.3232C24.9897 20.2942 25.055 20.251 25.1098 20.1963C25.1646 20.1415 25.2079 20.0763 25.2369 20.0045C25.266 19.9327 25.2803 19.8557 25.279 19.7783C25.2777 19.7008 25.2608 19.6244 25.2293 19.5536C25.1978 19.4828 25.1524 19.4191 25.0958 19.3662L23.9368 18.2072Z" fill="#4A5A67"/>
<path d="M19.1179 9.72021C18.2302 9.72021 17.3625 9.98343 16.6245 10.4766C15.8864 10.9697 15.3112 11.6707 14.9715 12.4907C14.6318 13.3108 14.5429 14.2132 14.7161 15.0838C14.8893 15.9544 15.3167 16.7541 15.9444 17.3817C16.572 18.0094 17.3717 18.4368 18.2423 18.61C19.1129 18.7831 20.0153 18.6943 20.8354 18.3546C21.6554 18.0149 22.3564 17.4397 22.8495 16.7016C23.3427 15.9636 23.6059 15.0959 23.6059 14.2082C23.6046 13.0183 23.1313 11.8776 22.2899 11.0362C21.4485 10.1948 20.3078 9.72154 19.1179 9.72021ZM19.1179 17.5432C18.4583 17.5432 17.8135 17.3476 17.2651 16.9812C16.7166 16.6147 16.2892 16.0939 16.0367 15.4845C15.7843 14.8751 15.7183 14.2045 15.847 13.5576C15.9756 12.9107 16.2933 12.3164 16.7597 11.85C17.2261 11.3836 17.8203 11.066 18.4673 10.9373C19.1142 10.8086 19.7847 10.8747 20.3941 11.1271C21.0035 11.3795 21.5244 11.8069 21.8908 12.3554C22.2573 12.9038 22.4529 13.5486 22.4529 14.2082C22.4518 15.0924 22.1001 15.94 21.4749 16.5652C20.8497 17.1905 20.0021 17.5422 19.1179 17.5432Z" fill="#4A5A67"/>
<path d="M17.438 4.74821C17.3227 4.74821 17.207 4.75155 17.091 4.75821C16.6055 3.64155 15.8044 2.69102 14.7861 2.0234C13.7678 1.35578 12.5767 1.00016 11.359 1.00021C9.73127 0.986612 8.16454 1.61899 7.00232 2.75872C5.8401 3.89845 5.17722 5.45252 5.15901 7.08021C5.15901 7.09222 5.15901 7.10421 5.15901 7.11521C4.00868 7.16931 2.92637 7.6759 2.14795 8.52457C1.36953 9.37324 0.958117 10.4952 1.00337 11.6459C1.04863 12.7966 1.54689 13.8828 2.38956 14.6677C3.23223 15.4526 4.35099 15.8726 5.50201 15.8362H17.438C18.9224 15.849 20.3513 15.2725 21.4113 14.2332C22.4712 13.1939 23.0756 11.7766 23.092 10.2922C23.0756 8.80783 22.4712 7.39054 21.4113 6.35122C20.3513 5.3119 18.9224 4.73541 17.438 4.74821Z" fill="white" stroke="#4A5A67" stroke-width="2"/>
</svg>
